<?xml version="1.0" encoding="iso-8859-1"?>
<!-- Generator: Adobe Illustrator 19.0.0, SVG Export Plug-In . SVG Version: 6.00 Build 0)  -->
<svg xmlns="http://www.w3.org/2000/svg" xmlns:xlink="http://www.w3.org/1999/xlink" version="1.1" id="Layer_1" x="0px" y="0px" viewBox="0 0 512 512" style="enable-background:new 0 0 512 512;" xml:space="preserve" width="512px" height="512px">
<g>
	<g>
		<g>
			<path d="M110.933,256.009c0-4.71-3.823-8.533-8.533-8.533H76.817c-4.71,0-8.533,3.823-8.533,8.533s3.823,8.533,8.533,8.533H102.4     C107.11,264.542,110.933,260.727,110.933,256.009z" fill="#ffb647"/>
			<path d="M99.661,354.065c1.451,0,2.918-0.367,4.258-1.143l7.381-4.267c4.079-2.355,5.478-7.578,3.123-11.657     c-2.364-4.087-7.578-5.495-11.665-3.123l-7.381,4.267c-4.079,2.364-5.47,7.578-3.115,11.665     C93.841,352.538,96.708,354.065,99.661,354.065z" fill="#ffb647"/>
			<path d="M112.009,161.075l-7.39-4.267c-4.096-2.355-9.301-0.956-11.656,3.123c-2.355,4.087-0.956,9.301,3.123,11.656l7.39,4.267     c1.348,0.777,2.816,1.143,4.258,1.143c2.953,0,5.82-1.527,7.398-4.267C117.487,168.653,116.087,163.43,112.009,161.075z" fill="#ffb647"/>
			<path d="M128,494.933H8.533c-4.71,0-8.533,3.823-8.533,8.533S3.823,512,8.533,512H128c4.71,0,8.533-3.823,8.533-8.533     S132.71,494.933,128,494.933z" fill="#ffb647"/>
			<path d="M128,460.8H8.533c-4.71,0-8.533,3.823-8.533,8.533s3.823,8.533,8.533,8.533H128c4.71,0,8.533-3.823,8.533-8.533     S132.71,460.8,128,460.8z" fill="#ffb647"/>
			<path d="M35.038,376.064c1.297,0,2.611-0.29,3.849-0.913c4.207-2.133,5.888-7.262,3.763-11.469     C25.677,330.121,17.067,293.888,17.067,256C17.067,124.254,124.254,17.067,256,17.067s238.933,107.187,238.933,239.377     c0,9.668,0,24.277-2.415,34.039c-1.135,4.574,1.655,9.199,6.229,10.334c4.565,1.135,9.199-1.655,10.334-6.238     C512,282.803,512,266.94,512,256C512,114.842,397.158,0,256,0S0,114.842,0,256c0,40.585,9.225,79.411,27.418,115.379     C28.919,374.357,31.923,376.064,35.038,376.064z" fill="#ffb647"/>
			<path d="M467.081,275.721c4.659,0.896,9.096-2.176,9.967-6.801c1.092-5.751,0.828-12.288,0.819-12.919     c0-122.334-99.533-221.867-221.867-221.867S34.133,133.666,34.133,256c0,40.977,11.264,81.007,32.563,115.763     c1.613,2.637,4.412,4.079,7.287,4.079c1.519,0,3.055-0.401,4.446-1.263c4.028-2.458,5.282-7.714,2.816-11.733     C61.594,330.778,51.2,293.828,51.2,256c0-112.93,91.87-204.8,204.8-204.8s204.8,91.87,204.809,204.407     c-0.017,0.307-0.026,0.768-0.008,1.084c0.06,1.323,0.094,5.828-0.521,9.054C459.401,270.379,462.447,274.842,467.081,275.721z" fill="#ffb647"/>
			<path d="M408.081,159.078l-7.381,4.267c-4.079,2.355-5.478,7.578-3.123,11.656c1.579,2.739,4.446,4.267,7.398,4.267     c1.451,0,2.918-0.367,4.267-1.143l7.381-4.267c4.079-2.364,5.47-7.578,3.115-11.665     C417.382,158.114,412.151,156.706,408.081,159.078z" fill="#ffb647"/>
			<path d="M162.193,92.262c-4.079,2.355-5.47,7.578-3.115,11.657l4.267,7.381c1.579,2.739,4.446,4.267,7.398,4.267     c1.451,0,2.918-0.367,4.258-1.143c4.079-2.364,5.478-7.578,3.123-11.665l-4.267-7.381     C171.494,91.298,166.272,89.899,162.193,92.262z" fill="#ffb647"/>
			<path d="M340.412,96.085l-4.267,7.39c-2.355,4.079-0.956,9.301,3.123,11.656c1.348,0.777,2.807,1.143,4.258,1.143     c2.953,0,5.811-1.527,7.398-4.267l4.267-7.39c2.355-4.087,0.956-9.301-3.123-11.656     C347.964,90.598,342.758,91.998,340.412,96.085z" fill="#ffb647"/>
			<path d="M298.667,494.933h-102.4c-4.71,0-8.533,3.823-8.533,8.533s3.823,8.533,8.533,8.533h102.4c4.71,0,8.533-3.823,8.533-8.533     S303.377,494.933,298.667,494.933z" fill="#ffb647"/>
			<path d="M196.267,477.867h70.263c4.719,0,8.533-3.823,8.533-8.533s-3.814-8.533-8.533-8.533h-70.263     c-4.71,0-8.533,3.823-8.533,8.533S191.556,477.867,196.267,477.867z" fill="#ffb647"/>
			<path d="M162.133,392.533c-4.71,0-8.533,3.823-8.533,8.533v102.4c0,4.71,3.823,8.533,8.533,8.533c4.71,0,8.533-3.823,8.533-8.533     v-102.4C170.667,396.356,166.844,392.533,162.133,392.533z" fill="#ffb647"/>
			<path d="M392.533,349.867c9.412,0,17.067,7.654,17.067,17.067c0,4.71,3.823,8.533,8.533,8.533s8.533-3.823,8.533-8.533     c0-15.855-10.923-29.107-25.6-32.922V332.8c0-4.71-3.823-8.533-8.533-8.533c-4.71,0-8.533,3.823-8.533,8.533v1.212     c-14.677,3.814-25.6,17.067-25.6,32.922c0,18.825,15.309,34.133,34.133,34.133c9.412,0,17.067,7.654,17.067,17.067     s-7.654,17.067-17.067,17.067c-9.412,0-17.067-7.654-17.067-17.067c0-4.71-3.823-8.533-8.533-8.533s-8.533,3.823-8.533,8.533     c0,15.855,10.923,29.107,25.6,32.922v1.212c0,4.71,3.823,8.533,8.533,8.533c4.71,0,8.533-3.823,8.533-8.533v-1.212     c14.677-3.814,25.6-17.067,25.6-32.922c0-18.825-15.309-34.133-34.133-34.133c-9.412,0-17.067-7.654-17.067-17.067     S383.121,349.867,392.533,349.867z" fill="#ffb647"/>
			<path d="M392.533,273.067c-65.877,0-119.467,53.589-119.467,119.467S326.656,512,392.533,512S512,458.411,512,392.533     S458.411,273.067,392.533,273.067z M392.533,494.933c-56.465,0-102.4-45.935-102.4-102.4c0-56.465,45.935-102.4,102.4-102.4     c56.465,0,102.4,45.935,102.4,102.4C494.933,448.998,448.998,494.933,392.533,494.933z" fill="#ffb647"/>
			<path d="M128,392.533H8.533c-4.71,0-8.533,3.823-8.533,8.533s3.823,8.533,8.533,8.533H128c4.71,0,8.533-3.823,8.533-8.533     S132.71,392.533,128,392.533z" fill="#ffb647"/>
			<path d="M256,281.6c11.11,0,20.489-7.151,24.03-17.067h10.103c4.71,0,8.533-3.823,8.533-8.533s-3.823-8.533-8.533-8.533H280.03     c-2.577-7.228-8.269-12.919-15.497-15.497V76.8c0-4.71-3.823-8.533-8.533-8.533s-8.533,3.823-8.533,8.533v155.17     c-7.228,2.577-12.919,8.269-15.497,15.497h-95.437c-4.71,0-8.533,3.823-8.533,8.533s3.823,8.533,8.533,8.533h95.445     C235.511,274.449,244.89,281.6,256,281.6z M256,247.467c4.702,0,8.533,3.831,8.533,8.533c0,4.702-3.831,8.533-8.533,8.533     c-4.702,0-8.533-3.831-8.533-8.533C247.467,251.298,251.298,247.467,256,247.467z" fill="#ffb647"/>
			<path d="M128,426.667H8.533C3.823,426.667,0,430.49,0,435.2s3.823,8.533,8.533,8.533H128c4.71,0,8.533-3.823,8.533-8.533     S132.71,426.667,128,426.667z" fill="#ffb647"/>
			<path d="M196.267,443.733h55.467c4.71,0,8.533-3.823,8.533-8.533s-3.823-8.533-8.533-8.533h-55.467     c-4.71,0-8.533,3.823-8.533,8.533S191.556,443.733,196.267,443.733z" fill="#ffb647"/>
			<path d="M196.267,409.6h51.2c4.71,0,8.533-3.823,8.533-8.533s-3.823-8.533-8.533-8.533h-51.2c-4.71,0-8.533,3.823-8.533,8.533     S191.556,409.6,196.267,409.6z" fill="#ffb647"/>
		</g>
	</g>
</g>
<g>
</g>
<g>
</g>
<g>
</g>
<g>
</g>
<g>
</g>
<g>
</g>
<g>
</g>
<g>
</g>
<g>
</g>
<g>
</g>
<g>
</g>
<g>
</g>
<g>
</g>
<g>
</g>
<g>
</g>
</svg>
