<?xml version="1.0" encoding="iso-8859-1"?>
<!-- Generator: Adobe Illustrator 19.0.0, SVG Export Plug-In . SVG Version: 6.00 Build 0)  -->
<svg xmlns="http://www.w3.org/2000/svg" xmlns:xlink="http://www.w3.org/1999/xlink" version="1.1" id="Layer_1" x="0px" y="0px" viewBox="0 0 512 512" style="enable-background:new 0 0 512 512;" xml:space="preserve" width="512px" height="512px">
<g>
	<g>
		<g>
			<path d="M188.058,100.292c1.63,16.401,8.764,30.839,9.105,31.522c7.74,15.471,19.43,38.852,58.837,38.852     s51.098-23.381,58.837-38.852c0.341-0.683,7.475-15.121,9.105-31.522c5.274-2.901,8.858-8.525,8.858-14.959V68.267     c0-6.306-3.43-11.819-8.533-14.771V51.2c0-28.237-22.963-51.2-51.2-51.2h-34.133c-28.237,0-51.2,22.963-51.2,51.2v2.295     c-5.103,2.953-8.533,8.465-8.533,14.771v17.067C179.2,91.767,182.784,97.391,188.058,100.292z M196.267,68.267     c4.719,0,8.533-3.823,8.533-8.533V51.2c0-18.825,15.309-34.133,34.133-34.133h34.133c18.825,0,34.133,15.309,34.133,34.133v8.533     c0,4.71,3.814,8.533,8.533,8.533v17.067c-4.719,0-8.533,3.823-8.533,8.533c0,14.763-7.561,30.174-7.637,30.319     C290.68,141.952,282.846,153.6,256,153.6c-26.846,0-34.679-11.648-43.554-29.406c-0.085-0.154-7.646-15.565-7.646-30.327     c0-4.71-3.814-8.533-8.533-8.533V68.267z" fill="#ffb647"/>
			<path d="M59.733,409.6H51.2c-4.719,0-8.533,3.823-8.533,8.533s3.814,8.533,8.533,8.533h8.533c4.719,0,8.533-3.823,8.533-8.533     S64.452,409.6,59.733,409.6z" fill="#ffb647"/>
			<path d="M273.067,85.333h8.533c4.719,0,8.533-3.823,8.533-8.533s-3.814-8.533-8.533-8.533h-8.533     c-4.719,0-8.533,3.823-8.533,8.533S268.348,85.333,273.067,85.333z" fill="#ffb647"/>
			<path d="M230.4,85.333h8.533c4.719,0,8.533-3.823,8.533-8.533s-3.814-8.533-8.533-8.533H230.4c-4.719,0-8.533,3.823-8.533,8.533     S225.681,85.333,230.4,85.333z" fill="#ffb647"/>
			<path d="M418.133,409.6H409.6c-4.719,0-8.533,3.823-8.533,8.533s3.814,8.533,8.533,8.533h8.533c4.719,0,8.533-3.823,8.533-8.533     S422.852,409.6,418.133,409.6z" fill="#ffb647"/>
			<path d="M460.8,409.6h-8.533c-4.719,0-8.533,3.823-8.533,8.533s3.814,8.533,8.533,8.533h8.533c4.719,0,8.533-3.823,8.533-8.533     S465.519,409.6,460.8,409.6z" fill="#ffb647"/>
			<path d="M503.467,394.829v-2.296c0-28.237-22.963-51.2-51.2-51.2h-34.133c-28.237,0-51.2,22.963-51.2,51.2v2.296     c-5.103,2.953-8.533,8.465-8.533,14.771v17.067c0,6.434,3.584,12.058,8.858,14.959c1.63,16.401,8.764,30.839,9.105,31.522     C384.102,488.619,395.793,512,435.2,512s51.098-23.381,58.837-38.852c0.341-0.683,7.475-15.121,9.105-31.522     c5.274-2.901,8.858-8.525,8.858-14.959V409.6C512,403.294,508.57,397.781,503.467,394.829z M494.933,426.667     c-4.719,0-8.533,3.823-8.533,8.533c0,14.763-7.561,30.174-7.637,30.319c-8.883,17.766-16.717,29.414-43.563,29.414     s-34.679-11.648-43.554-29.406C391.561,465.374,384,449.963,384,435.2c0-4.71-3.814-8.533-8.533-8.533V409.6     c4.719,0,8.533-3.823,8.533-8.533v-8.533c0-18.825,15.309-34.133,34.133-34.133h34.133c18.825,0,34.133,15.309,34.133,34.133     v8.533c0,4.71,3.814,8.533,8.533,8.533V426.667z" fill="#ffb647"/>
			<path d="M356.344,355.277l-91.81-53.009V196.267c0-4.71-3.814-8.533-8.533-8.533s-8.533,3.823-8.533,8.533v106.001     l-91.802,53.018c-4.079,2.355-5.478,7.578-3.123,11.657c1.587,2.739,4.446,4.267,7.398,4.267c1.451,0,2.918-0.367,4.258-1.143     L256,317.056l91.81,53.001c1.34,0.776,2.807,1.143,4.258,1.143c2.953,0,5.811-1.527,7.398-4.267     C361.822,362.846,360.422,357.632,356.344,355.277z" fill="#ffb647"/>
			<path d="M145.067,394.829v-2.296c0-28.237-22.963-51.2-51.2-51.2H59.733c-28.237,0-51.2,22.963-51.2,51.2v2.296     C3.43,397.781,0,403.294,0,409.6v17.067c0,6.434,3.584,12.058,8.858,14.959c1.63,16.401,8.764,30.839,9.105,31.522     C25.702,488.619,37.393,512,76.8,512s51.098-23.381,58.837-38.852c0.341-0.683,7.475-15.121,9.105-31.522     c5.274-2.901,8.858-8.525,8.858-14.959V409.6C153.6,403.294,150.17,397.781,145.067,394.829z M136.533,426.667     c-4.719,0-8.533,3.823-8.533,8.533c0,14.763-7.561,30.174-7.637,30.319c-8.883,17.766-16.717,29.414-43.563,29.414     c-26.846,0-34.679-11.648-43.554-29.406c-0.085-0.154-7.646-15.565-7.646-30.328c0-4.71-3.814-8.533-8.533-8.533V409.6     c4.719,0,8.533-3.823,8.533-8.533v-8.533c0-18.825,15.309-34.133,34.133-34.133h34.133c18.825,0,34.133,15.309,34.133,34.133     v8.533c0,4.71,3.814,8.533,8.533,8.533V426.667z" fill="#ffb647"/>
			<path d="M102.4,409.6h-8.533c-4.719,0-8.533,3.823-8.533,8.533s3.814,8.533,8.533,8.533h8.533c4.719,0,8.533-3.823,8.533-8.533     S107.119,409.6,102.4,409.6z" fill="#ffb647"/>
		</g>
	</g>
</g>
<g>
</g>
<g>
</g>
<g>
</g>
<g>
</g>
<g>
</g>
<g>
</g>
<g>
</g>
<g>
</g>
<g>
</g>
<g>
</g>
<g>
</g>
<g>
</g>
<g>
</g>
<g>
</g>
<g>
</g>
</svg>
